<svg
  width="28"
  height="28"
  viewBox="0 0 800 800"
  fill="none"
  xmlns="http://www.w3.org/2000/svg"
>
  <path
    d="M687 185.656C626.047 124.701 541.839 87 448.827 87C262.802 87 112 237.802 112 423.827C112 609.851 262.802 760.653 448.827 760.653C541.839 760.653 626.046 722.952 687 661.998L554.682 529.681C527.591 556.771 490.166 573.527 448.827 573.527C366.149 573.527 299.126 506.504 299.126 423.827C299.126 341.149 366.149 274.126 448.827 274.126C490.166 274.126 527.592 290.882 554.682 317.974L687 185.656Z"
    fill="#8759F2"
  />
  <path
    d="M557.221 531.167L452.53 423.827L557.221 316.487C584.014 343.957 600.586 381.908 600.586 423.827C600.586 465.746 584.014 503.697 557.221 531.167Z"
    fill="#FE3D7F"
  />
</svg>