<svg width="64" height="16" viewBox="0 0 64 16" fill="none" xmlns="http://www.w3.org/2000/svg">
<path d="M8.46 9.95C9.08667 10.01 9.63667 10.1267 10.11 10.3C10.5833 10.4733 10.9533 10.73 11.22 11.07C11.4867 11.4167 11.62 11.8767 11.62 12.45C11.62 13.09 11.4033 13.6433 10.97 14.11C10.5367 14.5767 9.9 14.9367 9.06 15.19C8.22667 15.4433 7.2 15.57 5.98 15.57C4.20667 15.57 2.84333 15.3133 1.89 14.8C0.936667 14.2933 0.46 13.6033 0.46 12.73C0.46 12.4833 0.49 12.26 0.55 12.06C0.61 11.86 0.683333 11.6933 0.77 11.56L3.18 11.91C3.14 11.9633 3.1 12.0467 3.06 12.16C3.02 12.28 3 12.4233 3 12.59C3 13.0033 3.27667 13.3 3.83 13.48C4.39 13.6667 5.13333 13.76 6.06 13.76C6.74 13.76 7.30667 13.7133 7.76 13.62C8.22 13.5267 8.56667 13.3933 8.8 13.22C9.04 13.0467 9.16 12.8433 9.16 12.61C9.16 12.2633 9.00333 12.04 8.69 11.94C8.37667 11.84 8.00333 11.7733 7.57 11.74L3.54 11.37C2.82 11.2967 2.22667 11.0833 1.76 10.73C1.3 10.3767 1.07 9.91 1.07 9.33C1.07 8.97667 1.16333 8.65 1.35 8.35C1.54333 8.05 1.76333 7.8 2.01 7.6C2.25667 7.39333 2.46667 7.26667 2.64 7.22L4.14 7.96C4 7.98 3.83333 8.07 3.64 8.23C3.45333 8.39 3.36 8.58 3.36 8.8C3.36 9.00667 3.45333 9.18 3.64 9.32C3.82667 9.45333 4.18667 9.54667 4.72 9.6L8.46 9.95ZM9.65 0.38H12.01L11.05 4.5C10.87 5.27333 10.58 5.96667 10.18 6.58C9.78 7.19333 9.24667 7.67667 8.58 8.03C7.91333 8.38333 7.07333 8.56 6.06 8.56C5.00667 8.56 4.09667 8.39 3.33 8.05C2.57 7.70333 1.98333 7.22 1.57 6.6C1.15667 5.97333 0.95 5.25333 0.95 4.44C0.95 3.60667 1.16 2.87333 1.58 2.24C2.00667 1.6 2.59 1.1 3.33 0.74C4.07667 0.38 4.92 0.2 5.86 0.2C6.62 0.2 7.30333 0.326666 7.91 0.579999C8.51667 0.826667 9 1.15 9.36 1.55C9.72667 1.95 9.92333 2.37667 9.95 2.83L9.36 2.94L9.65 0.38ZM6.05 6.53C6.56333 6.53 7.00667 6.44667 7.38 6.28C7.75333 6.11333 8.04333 5.87333 8.25 5.56C8.45667 5.24 8.56 4.85333 8.56 4.4C8.56 3.95333 8.45667 3.57 8.25 3.25C8.04333 2.93 7.75333 2.68667 7.38 2.52C7.00667 2.34667 6.56667 2.26 6.06 2.26C5.56667 2.26 5.13 2.34667 4.75 2.52C4.37 2.69333 4.07 2.94333 3.85 3.27C3.63667 3.59 3.53 3.97333 3.53 4.42C3.53 4.86667 3.63333 5.25 3.84 5.57C4.05333 5.88333 4.34667 6.12333 4.72 6.29C5.1 6.45 5.54333 6.53 6.05 6.53ZM13.7809 11V0.38H16.4109V3.91L15.8009 3.57C15.8676 3.11 15.9909 2.67667 16.1709 2.27C16.3509 1.85667 16.5909 1.49667 16.8909 1.19C17.1909 0.876666 17.5543 0.633333 17.9809 0.46C18.4076 0.286666 18.8943 0.2 19.4409 0.2C19.8743 0.2 20.2143 0.233333 20.4609 0.299999C20.7143 0.359999 20.8709 0.409999 20.9309 0.449999L20.4509 2.86C20.3843 2.81333 20.2476 2.75667 20.0409 2.69C19.8409 2.61667 19.5709 2.58 19.2309 2.58C18.6909 2.58 18.2376 2.67333 17.8709 2.86C17.5109 3.04 17.2243 3.28667 17.0109 3.6C16.7976 3.90667 16.6443 4.24667 16.5509 4.62C16.4576 4.98667 16.4109 5.35333 16.4109 5.72V11H13.7809ZM26.0342 11.22C25.2409 11.22 24.5442 11.0967 23.9442 10.85C23.3442 10.5967 22.8742 10.2333 22.5342 9.76C22.1942 9.28667 22.0242 8.71667 22.0242 8.05C22.0242 7.32333 22.2209 6.72667 22.6142 6.26C23.0142 5.78667 23.5509 5.42333 24.2242 5.17C24.8976 4.91 25.6442 4.74333 26.4642 4.67C27.6776 4.55 28.5242 4.43667 29.0042 4.33C29.4909 4.21667 29.7342 4.03667 29.7342 3.79C29.7342 3.78333 29.7342 3.78 29.7342 3.78C29.7342 3.77333 29.7342 3.77 29.7342 3.77C29.7342 3.30333 29.5242 2.94333 29.1042 2.69C28.6842 2.43667 28.0909 2.31 27.3242 2.31C26.5176 2.31 25.8976 2.45333 25.4642 2.74C25.0376 3.02 24.8242 3.46667 24.8242 4.08H22.2242C22.2242 3.24667 22.4442 2.54333 22.8842 1.97C23.3309 1.39 23.9409 0.949999 24.7142 0.649999C25.4876 0.349999 26.3642 0.2 27.3442 0.2C28.2576 0.2 29.0942 0.336666 29.8542 0.61C30.6142 0.883333 31.2242 1.29667 31.6842 1.85C32.1442 2.40333 32.3742 3.09333 32.3742 3.92C32.3742 4.06 32.3742 4.2 32.3742 4.34C32.3742 4.48 32.3742 4.62 32.3742 4.76V8.76C32.3742 9.01333 32.3809 9.26333 32.3942 9.51C32.4142 9.75 32.4509 9.96667 32.5042 10.16C32.5709 10.3733 32.6509 10.5533 32.7442 10.7C32.8376 10.8467 32.9109 10.9467 32.9642 11H30.3642C30.3176 10.9533 30.2509 10.8633 30.1642 10.73C30.0842 10.59 30.0109 10.43 29.9442 10.25C29.8776 10.05 29.8276 9.83667 29.7942 9.61C29.7609 9.37667 29.7442 9.12 29.7442 8.84L30.2642 9.2C30.0642 9.60667 29.7576 9.96333 29.3442 10.27C28.9376 10.57 28.4509 10.8033 27.8842 10.97C27.3176 11.1367 26.7009 11.22 26.0342 11.22ZM26.6742 9.15C27.2209 9.15 27.7276 9.05667 28.1942 8.87C28.6609 8.68333 29.0376 8.39667 29.3242 8.01C29.6109 7.61667 29.7542 7.11333 29.7542 6.5V5.08L30.3942 5.8C29.9676 5.96 29.4542 6.09333 28.8542 6.2C28.2542 6.3 27.6476 6.38 27.0342 6.44C26.2476 6.51333 25.6542 6.65 25.2542 6.85C24.8609 7.05 24.6642 7.37667 24.6642 7.83C24.6642 8.27 24.8309 8.6 25.1642 8.82C25.4976 9.04 26.0009 9.15 26.6742 9.15ZM40.0661 11.22C38.9461 11.22 37.9561 10.99 37.0961 10.53C36.2361 10.07 35.5628 9.42333 35.0761 8.59C34.5894 7.75667 34.3461 6.78 34.3461 5.66C34.3461 4.54667 34.5894 3.58 35.0761 2.76C35.5628 1.94 36.2361 1.31 37.0961 0.87C37.9561 0.423333 38.9461 0.2 40.0661 0.2C40.9061 0.2 41.6494 0.323333 42.2961 0.569999C42.9428 0.816666 43.4861 1.14667 43.9261 1.56C44.3728 1.96667 44.7128 2.41667 44.9461 2.91C45.1794 3.39667 45.2961 3.88333 45.2961 4.37C45.2961 4.38333 45.2961 4.39667 45.2961 4.41C45.2961 4.42333 45.2961 4.43667 45.2961 4.45H42.6861C42.6861 4.41667 42.6828 4.38 42.6761 4.34C42.6694 4.3 42.6628 4.26 42.6561 4.22C42.6028 3.88 42.4661 3.57333 42.2461 3.3C42.0261 3.02 41.7328 2.79667 41.3661 2.63C40.9994 2.46333 40.5561 2.38 40.0361 2.38C39.4828 2.38 38.9761 2.50333 38.5161 2.75C38.0628 2.99 37.6994 3.35333 37.4261 3.84C37.1594 4.32667 37.0261 4.93333 37.0261 5.66C37.0261 6.38 37.1594 6.99333 37.4261 7.5C37.6928 8 38.0528 8.38333 38.5061 8.65C38.9661 8.91 39.4761 9.04 40.0361 9.04C40.6294 9.04 41.1128 8.95 41.4861 8.77C41.8661 8.58333 42.1528 8.33667 42.3461 8.03C42.5394 7.71667 42.6494 7.37667 42.6761 7.01H45.2961C45.2961 7.50333 45.1828 8 44.9561 8.5C44.7294 8.99333 44.3961 9.44667 43.9561 9.86C43.5161 10.2733 42.9694 10.6033 42.3161 10.85C41.6694 11.0967 40.9194 11.22 40.0661 11.22ZM48.4523 6.54V4.67H55.8823L55.5823 5.17C55.5823 5.13 55.5823 5.08667 55.5823 5.04C55.5823 4.98667 55.5823 4.94333 55.5823 4.91C55.5823 4.45 55.479 4.02 55.2723 3.62C55.0657 3.21333 54.7523 2.88667 54.3323 2.64C53.9123 2.38667 53.379 2.26 52.7323 2.26C52.0923 2.26 51.5357 2.39667 51.0623 2.67C50.5957 2.93667 50.2323 3.32333 49.9723 3.83C49.719 4.33667 49.5923 4.94333 49.5923 5.65C49.5923 6.37667 49.7157 7.00333 49.9623 7.53C50.209 8.05 50.569 8.45 51.0423 8.73C51.5223 9.00333 52.1057 9.14 52.7923 9.14C53.259 9.14 53.6623 9.09667 54.0023 9.01C54.3423 8.92333 54.619 8.80667 54.8323 8.66C55.0523 8.50667 55.2157 8.34333 55.3223 8.17C55.4357 7.99667 55.5023 7.82333 55.5223 7.65H58.1423C58.1023 8.09667 57.9523 8.53333 57.6923 8.96C57.439 9.38 57.0823 9.76333 56.6223 10.11C56.1623 10.45 55.6023 10.7233 54.9423 10.93C54.289 11.13 53.5423 11.23 52.7023 11.23C51.5623 11.23 50.5657 10.9967 49.7123 10.53C48.859 10.0633 48.1923 9.41333 47.7123 8.58C47.239 7.74667 47.0023 6.79333 47.0023 5.72C47.0023 4.62 47.2423 3.65667 47.7223 2.83C48.209 2.00333 48.8823 1.36 49.7423 0.9C50.6023 0.433333 51.589 0.2 52.7023 0.2C53.849 0.2 54.839 0.433333 55.6723 0.9C56.5123 1.36667 57.159 2.01667 57.6123 2.85C58.0657 3.67667 58.2923 4.64 58.2923 5.74C58.2923 5.88 58.289 6.03 58.2823 6.19C58.2757 6.35 58.2657 6.46667 58.2523 6.54H48.4523Z" fill="#2D2D2D"/>
<path d="M61.9406 11.28C61.5273 11.28 61.1773 11.1367 60.8906 10.85C60.604 10.5633 60.4606 10.2133 60.4606 9.8C60.4606 9.39333 60.604 9.04667 60.8906 8.76C61.1773 8.46667 61.5273 8.32 61.9406 8.32C62.3473 8.32 62.694 8.46667 62.9806 8.76C63.274 9.04667 63.4206 9.39333 63.4206 9.8C63.4206 10.2133 63.274 10.5633 62.9806 10.85C62.694 11.1367 62.3473 11.28 61.9406 11.28Z" fill="#FF6250"/>
</svg>
